HIERARCHY
ROOT hip
{
  OFFSET -108.385 84.9404 -8.93976
  CHANNELS 6 Xposition Yposition Zposition Zrotation Xrotation Yrotation
  JOINT abdomen
  {
    OFFSET 0 20.6881 -0.73152
    CHANNELS 3 Zrotation Xrotation Yrotation
    JOINT chest
    {
      OFFSET 0 11.7043 -0.48768
      CHANNELS 3 Zrotation Xrotation Yrotation
      JOINT neck
      {
        OFFSET 0 22.1894 -2.19456
        CHANNELS 3 Zrotation Xrotation Yrotation
        JOINT head
        {
          OFFSET -0.24384 7.07133 1.2192
          CHANNELS 3 Zrotation Xrotation Yrotation
          JOINT leftEye
          {
            OFFSET 4.14528 8.04674 8.04672
            CHANNELS 3 Zrotation Xrotation Yrotation
            End Site
            {
              OFFSET 1 0 0
            }
          }
          JOINT rightEye
          {
            OFFSET -3.6576 8.04674 8.04672
            CHANNELS 3 Zrotation Xrotation Yrotation
            End Site
            {
              OFFSET 1 0 0
            }
          }
        }
      }
      JOINT rCollar
      {
        OFFSET -2.68224 19.2634 -4.8768
        CHANNELS 3 Zrotation Xrotation Yrotation
        JOINT rShldr
        {
          OFFSET -8.77824 -1.95073 1.46304
          CHANNELS 3 Zrotation Xrotation Yrotation
          JOINT rForeArm
          {
            OFFSET -28.1742 -1.7115 0.48768
            CHANNELS 3 Zrotation Xrotation Yrotation
            JOINT rHand
            {
              OFFSET -22.5879 0.773209 7.07136
              CHANNELS 3 Zrotation Xrotation Yrotation
              JOINT rThumb1
              {
                OFFSET -1.2192 -0.487915 3.41376
                CHANNELS 3 Zrotation Xrotation Yrotation
                JOINT rThumb2
                {
                  OFFSET -3.37035 -0.52449 3.41376
                  CHANNELS 3 Zrotation Xrotation Yrotation
                  End Site
                  {
                    OFFSET -1.78271 -1.18214 1.43049
                  }
                }
              }
              JOINT rIndex1
              {
                OFFSET -7.75947 0.938293 5.60832
                CHANNELS 3 Zrotation Xrotation Yrotation
                JOINT rIndex2
                {
                  OFFSET -2.54057 -0.884171 1.56538
                  CHANNELS 3 Zrotation Xrotation Yrotation
                  End Site
                  {
                    OFFSET -1.62519 -0.234802 1.16502
                  }
                }
              }
              JOINT rMid1
              {
                OFFSET -8.24714 1.18213 3.41376
                CHANNELS 3 Zrotation Xrotation Yrotation
                JOINT rMid2
                {
                  OFFSET -3.10165 -0.590103 1.0647
                  CHANNELS 3 Zrotation Xrotation Yrotation
                  End Site
                  {
                    OFFSET -2.48547 -0.328903 0.83742
                  }
                }
              }
              JOINT rRing1
              {
                OFFSET -8.82822 0.546677 1.51678
                CHANNELS 3 Zrotation Xrotation Yrotation
                JOINT rRing2
                {
                  OFFSET -2.60934 -0.819778 -0.0198488
                  CHANNELS 3 Zrotation Xrotation Yrotation
                  End Site
                  {
                    OFFSET -2.33842 -0.294052 0.168128
                  }
                }
              }
              JOINT rPinky1
              {
                OFFSET -8.27202 -0.0477905 -0.4584
                CHANNELS 3 Zrotation Xrotation Yrotation
                JOINT rPinky2
                {
                  OFFSET -1.82734 -0.647385 -0.700984
                  CHANNELS 3 Zrotation Xrotation Yrotation
                  End Site
                  {
                    OFFSET -1.69225 -0.51767 -0.607171
                  }
                }
              }
            }
          }
        }
      }
      JOINT lCollar
      {
        OFFSET 2.68224 19.2634 -4.8768
        CHANNELS 3 Zrotation Xrotation Yrotation
        JOINT lShldr
        {
          OFFSET 8.77824 -1.95073 1.46304
          CHANNELS 3 Zrotation Xrotation Yrotation
          JOINT lForeArm
          {
            OFFSET 28.1742 -1.7115 0.48768
            CHANNELS 3 Zrotation Xrotation Yrotation
            JOINT lHand
            {
              OFFSET 22.5879 0.773209 7.07136
              CHANNELS 3 Zrotation Xrotation Yrotation
              JOINT lThumb1
              {
                OFFSET 1.2192 -0.487915 3.41376
                CHANNELS 3 Zrotation Xrotation Yrotation
                JOINT lThumb2
                {
                  OFFSET 3.37035 -0.52449 3.41376
                  CHANNELS 3 Zrotation Xrotation Yrotation
                  End Site
                  {
                    OFFSET 1.78271 -1.18214 1.43049
                  }
                }
              }
              JOINT lIndex1
              {
                OFFSET 7.75947 0.938293 5.60832
                CHANNELS 3 Zrotation Xrotation Yrotation
                JOINT lIndex2
                {
                  OFFSET 2.54057 -0.884171 1.56538
                  CHANNELS 3 Zrotation Xrotation Yrotation
                  End Site
                  {
                    OFFSET 1.62519 -0.234802 1.16502
                  }
                }
              }
              JOINT lMid1
              {
                OFFSET 8.24714 1.18213 3.41376
                CHANNELS 3 Zrotation Xrotation Yrotation
                JOINT lMid2
                {
                  OFFSET 3.10165 -0.590103 1.0647
                  CHANNELS 3 Zrotation Xrotation Yrotation
                  End Site
                  {
                    OFFSET 2.48547 -0.328903 0.83742
                  }
                }
              }
              JOINT lRing1
              {
                OFFSET 8.82822 0.546677 1.51678
                CHANNELS 3 Zrotation Xrotation Yrotation
                JOINT lRing2
                {
                  OFFSET 2.60934 -0.819778 -0.0198488
                  CHANNELS 3 Zrotation Xrotation Yrotation
                  End Site
                  {
                    OFFSET 2.33842 -0.294052 0.168128
                  }
                }
              }
              JOINT lPinky1
              {
                OFFSET 8.27202 -0.0477905 -0.4584
                CHANNELS 3 Zrotation Xrotation Yrotation
                JOINT lPinky2
                {
                  OFFSET 1.82734 -0.647385 -0.700984
                  CHANNELS 3 Zrotation Xrotation Yrotation
                  End Site
                  {
                    OFFSET 1.69225 -0.51767 -0.607171
                  }
                }
              }
            }
          }
        }
      }
    }
  }
  JOINT rButtock
  {
    OFFSET -8.77824 4.35084 1.2192
    CHANNELS 3 Zrotation Xrotation Yrotation
    JOINT rThigh
    {
      OFFSET 0 -1.70687 -2.19456
      CHANNELS 3 Zrotation Xrotation Yrotation
      JOINT rShin
      {
        OFFSET 0 -36.8199 0.73152
        CHANNELS 3 Zrotation Xrotation Yrotation
        JOINT rFoot
        {
          OFFSET 0.73152 -45.1104 -5.12064
          CHANNELS 3 Zrotation Xrotation Yrotation
          End Site
          {
            OFFSET -1.1221 -3.69964 12.103
          }
        }
      }
    }
  }
  JOINT lButtock
  {
    OFFSET 8.77824 4.35084 1.2192
    CHANNELS 3 Zrotation Xrotation Yrotation
    JOINT lThigh
    {
      OFFSET 0 -1.70687 -2.19456
      CHANNELS 3 Zrotation Xrotation Yrotation
      JOINT lShin
      {
        OFFSET 0 -36.8199 0.73152
        CHANNELS 3 Zrotation Xrotation Yrotation
        JOINT lFoot
        {
          OFFSET -0.73152 -45.1104 -5.12064
          CHANNELS 3 Zrotation Xrotation Yrotation
          End Site
          {
            OFFSET 1.1221 -3.69964 12.103
          }
        }
      }
    }
  }
}
MOTION
Frames:	4
Frame Time:	0.00833333
-42.0538 84.5095 -28.7737 -13.0942 -16.7113 107.185 -13.6217 17.8863 7.23969 -4.17687 -0.515599 1.77274 -5.22583 -4.47492 -3.57024 16.1677 36.5241 -5.13196 -0 0 0 -0 0 0 -1.32765e-013 1.09135e-012 4.53957e-013 -48.127 51.9678 87.5158 -27.3332 -27.5212 63.3008 -1.20379 29.5251 4.56539 -1.6011e-010 -3.44902e-010 1.29705e-009 -2.48075e-010 -5.99702e-010 2.23957e-009 -1.60104e-010 -3.44903e-010 1.29704e-009 7.73091 5.47488 0.417314 -1.60111e-010 -3.44901e-010 1.29704e-009 2.90554 0.965183 0.102902 -1.60109e-010 -3.44902e-010 1.29704e-009 10.2786 0.731801 0.0259123 -1.60115e-010 -3.449e-010 1.29706e-009 2.22167 -0.733487 -0.20892 -1.32868e-013 1.09141e-012 4.53698e-013 16.3526 38.9275 -103.3 17.4941 -10.1529 -32.8949 0.269457 14.6275 -2.10202 2.12264e-009 3.65579e-009 -1.53384e-009 3.64632e-009 6.32554e-009 -2.68715e-009 2.12265e-009 3.6558e-009 -1.53383e-009 -7.73091 5.47488 -0.417314 2.12265e-009 3.6558e-009 -1.53384e-009 -2.90554 0.965183 -0.102902 2.12263e-009 3.6558e-009 -1.53385e-009 -10.2786 0.731801 -0.0259123 2.12263e-009 3.6558e-009 -1.53386e-009 -2.22167 -0.733487 0.20892 -2.03217e-016 0 -3.88251e-019 4.85336 -20.6638 -1.71923 0.040914 8.96033 0.449444 -0.832642 -2.11065 -9.80163 2.03217e-016 0 3.88251e-019 11.6498 -38.9389 -15.4728 0.240964 30.8899 -0.412359 1.43037 -8.24069 2.38334 
-41.9927 84.5207 -28.7375 -13.0154 -16.8157 107.368 -13.5296 17.9729 7.21316 -4.2033 -0.537351 1.76622 -5.17738 -4.43964 -3.58377 16.2065 36.5418 -5.17615 -0 0 0 -0 0 0 -1.33501e-013 1.14176e-012 4.97856e-013 -48.2352 52.063 87.5701 -27.3135 -27.447 63.1847 -1.16729 29.1253 4.49116 -7.34441e-010 -6.80611e-010 1.8714e-009 -1.22773e-009 -1.18684e-009 3.24261e-009 -7.34436e-010 -6.80612e-010 1.87139e-009 7.73091 5.47488 0.417314 -7.34443e-010 -6.80611e-010 1.8714e-009 2.90554 0.965183 0.102902 -7.34441e-010 -6.8061e-010 1.8714e-009 10.2786 0.731801 0.0259123 -7.34445e-010 -6.80609e-010 1.87141e-009 2.22167 -0.733487 -0.20892 -1.33625e-013 1.14187e-012 4.97608e-013 16.5737 38.8649 -103.464 17.4699 -10.1279 -32.8415 0.296483 15.3123 -2.20528 1.98802e-009 3.4677e-009 -1.92221e-009 3.40881e-009 5.99426e-009 -3.35772e-009 1.98803e-009 3.46771e-009 -1.9222e-009 -7.73091 5.47488 -0.417314 1.98803e-009 3.46771e-009 -1.92221e-009 -2.90554 0.965183 -0.102902 1.98801e-009 3.46771e-009 -1.92221e-009 -10.2786 0.731801 -0.0259123 1.98802e-009 3.4677e-009 -1.92222e-009 -2.22167 -0.733487 0.20892 -2.03217e-016 0 -3.88251e-019 4.92694 -20.5996 -1.89106 0.0412341 8.9795 0.452555 -0.846561 -2.19832 -9.80248 2.03217e-016 0 3.88251e-019 11.6923 -38.9496 -15.5761 0.241388 30.9282 -0.413781 1.41144 -8.31168 2.29587 
-41.9383 84.5257 -28.6799 -12.9493 -16.9744 107.588 -13.3422 18.0596 7.1256 -4.25731 -0.536112 1.7464 -5.15178 -4.46144 -3.58889 16.259 36.5758 -5.20571 -0 0 0 -0 0 0 -2.29623e-014 9.39276e-013 3.88681e-013 -48.2534 52.1395 87.5862 -27.3045 -27.4138 63.1333 -1.12343 28.6381 4.4013 -8.52683e-010 -8.75403e-010 1.7786e-009 -1.43372e-009 -1.52334e-009 3.08556e-009 -8.52677e-010 -8.75404e-010 1.77859e-009 7.73091 5.47488 0.417314 -8.52684e-010 -8.75403e-010 1.7786e-009 2.90554 0.965183 0.102902 -8.52681e-010 -8.75403e-010 1.7786e-009 10.2786 0.731801 0.0259123 -8.52686e-010 -8.75401e-010 1.77861e-009 2.22167 -0.733487 -0.20892 -2.30901e-014 9.39413e-013 3.88424e-013 16.8422 38.7626 -103.649 17.4344 -10.0913 -32.7631 0.325138 16.0255 -2.3133 8.73358e-010 1.93422e-009 -2.05609e-009 1.48101e-009 3.32834e-009 -3.57108e-009 8.73368e-010 1.93423e-009 -2.05607e-009 -7.73091 5.47488 -0.417314 8.73368e-010 1.93423e-009 -2.05609e-009 -2.90554 0.965183 -0.102902 8.73346e-010 1.93423e-009 -2.05609e-009 -10.2786 0.731801 -0.0259123 8.73357e-010 1.93422e-009 -2.0561e-009 -2.22167 -0.733487 0.20892 -2.03217e-016 0 -3.88251e-019 5.04192 -20.5732 -2.10147 0.0416831 9.00507 0.456884 -0.859299 -2.27659 -9.80528 2.03217e-016 0 3.88251e-019 11.7817 -39.027 -15.6651 0.241831 30.9728 -0.415764 1.38846 -8.42312 2.182 
-41.9091 84.5133 -28.647 -12.8833 -17.1675 107.839 -13.0925 18.1507 6.99161 -4.32338 -0.519423 1.71608 -5.13751 -4.51916 -3.58746 16.3163 36.6174 -5.22382 -0 0 0 -0 0 0 1.67227e-013 5.57017e-013 1.71079e-013 -48.2118 52.2186 87.5762 -27.3013 -27.4021 63.1152 -1.07385 28.0685 4.29747 -6.71545e-010 -9.86634e-010 1.22945e-009 -1.13228e-009 -1.71046e-009 2.13533e-009 -6.71538e-010 -9.86634e-010 1.22944e-009 7.73091 5.47488 0.417314 -6.71546e-010 -9.86634e-010 1.22945e-009 2.90554 0.965183 0.102902 -6.71542e-010 -9.86634e-010 1.22945e-009 10.2786 0.731801 0.0259123 -6.71548e-010 -9.86632e-010 1.22946e-009 2.22167 -0.733487 -0.20892 1.67105e-013 5.5717e-013 1.70803e-013 17.1566 38.6329 -103.858 17.3898 -10.0454 -32.6649 0.357518 16.7886 -2.42978 -9.97404e-010 -6.3324e-010 -2.03307e-009 -1.75146e-009 -1.13225e-009 -3.5004e-009 -9.97396e-010 -6.33228e-010 -2.03304e-009 -7.73091 5.47488 -0.417314 -9.97398e-010 -6.33236e-010 -2.03306e-009 -2.90554 0.965183 -0.102902 -9.97417e-010 -6.33239e-010 -2.03306e-009 -10.2786 0.731801 -0.0259123 -9.97404e-010 -6.33242e-010 -2.03307e-009 -2.22167 -0.733487 0.20892 -2.03217e-016 0 -3.88251e-019 5.18281 -20.5607 -2.34378 0.0422216 9.03467 0.462073 -0.872453 -2.35553 -9.81029 2.03217e-016 0 3.88251e-019 11.9027 -39.1407 -15.7395 0.24227 31.02 -0.418122 1.35921 -8.56726 2.03767 
